<svg width="136" height="136" viewBox="0 0 136 136" fill="none" xmlns="http://www.w3.org/2000/svg">
<rect x="0.5" y="0.5" width="135" height="135" rx="9.5" stroke="#1ABC00"/>
<path d="M68.5 38V55" stroke="#1ABC00" stroke-width="2" stroke-linecap="round" stroke-linejoin="round"/>
<path d="M60 46.5H77" stroke="#1ABC00" stroke-width="2" stroke-linecap="round" stroke-linejoin="round"/>
<path d="M36.5312 79.6328L32.7656 90H31.2266L35.5625 78.625H36.5547L36.5312 79.6328ZM39.6875 90L35.9141 79.6328L35.8906 78.625H36.8828L41.2344 90H39.6875ZM39.4922 85.7891V87.0234H33.1016V85.7891H39.4922ZM47.8672 88.3594V78H49.3203V90H47.9922L47.8672 88.3594ZM42.1797 85.8672V85.7031C42.1797 85.0573 42.2578 84.4714 42.4141 83.9453C42.5755 83.4141 42.8021 82.9583 43.0938 82.5781C43.3906 82.1979 43.7422 81.9062 44.1484 81.7031C44.5599 81.4948 45.0182 81.3906 45.5234 81.3906C46.0547 81.3906 46.5182 81.4844 46.9141 81.6719C47.3151 81.8542 47.6536 82.1224 47.9297 82.4766C48.2109 82.8255 48.4323 83.2474 48.5938 83.7422C48.7552 84.237 48.8672 84.7969 48.9297 85.4219V86.1406C48.8724 86.7604 48.7604 87.3177 48.5938 87.8125C48.4323 88.3073 48.2109 88.7292 47.9297 89.0781C47.6536 89.4271 47.3151 89.6953 46.9141 89.8828C46.513 90.0651 46.0443 90.1562 45.5078 90.1562C45.013 90.1562 44.5599 90.0495 44.1484 89.8359C43.7422 89.6224 43.3906 89.3229 43.0938 88.9375C42.8021 88.5521 42.5755 88.099 42.4141 87.5781C42.2578 87.0521 42.1797 86.4818 42.1797 85.8672ZM43.6328 85.7031V85.8672C43.6328 86.2891 43.6745 86.6849 43.7578 87.0547C43.8464 87.4245 43.9818 87.75 44.1641 88.0312C44.3464 88.3125 44.5781 88.5339 44.8594 88.6953C45.1406 88.8516 45.4766 88.9297 45.8672 88.9297C46.3464 88.9297 46.7396 88.8281 47.0469 88.625C47.3594 88.4219 47.6094 88.1536 47.7969 87.8203C47.9844 87.487 48.1302 87.125 48.2344 86.7344V84.8516C48.1719 84.5651 48.0807 84.2891 47.9609 84.0234C47.8464 83.7526 47.6953 83.513 47.5078 83.3047C47.3255 83.0911 47.099 82.9219 46.8281 82.7969C46.5625 82.6719 46.2474 82.6094 45.8828 82.6094C45.487 82.6094 45.1458 82.6927 44.8594 82.8594C44.5781 83.0208 44.3464 83.2448 44.1641 83.5312C43.9818 83.8125 43.8464 84.1406 43.7578 84.5156C43.6745 84.8854 43.6328 85.2812 43.6328 85.7031ZM56.8984 88.3594V78H58.3516V90H57.0234L56.8984 88.3594ZM51.2109 85.8672V85.7031C51.2109 85.0573 51.2891 84.4714 51.4453 83.9453C51.6068 83.4141 51.8333 82.9583 52.125 82.5781C52.4219 82.1979 52.7734 81.9062 53.1797 81.7031C53.5911 81.4948 54.0495 81.3906 54.5547 81.3906C55.0859 81.3906 55.5495 81.4844 55.9453 81.6719C56.3464 81.8542 56.6849 82.1224 56.9609 82.4766C57.2422 82.8255 57.4635 83.2474 57.625 83.7422C57.7865 84.237 57.8984 84.7969 57.9609 85.4219V86.1406C57.9036 86.7604 57.7917 87.3177 57.625 87.8125C57.4635 88.3073 57.2422 88.7292 56.9609 89.0781C56.6849 89.4271 56.3464 89.6953 55.9453 89.8828C55.5443 90.0651 55.0755 90.1562 54.5391 90.1562C54.0443 90.1562 53.5911 90.0495 53.1797 89.8359C52.7734 89.6224 52.4219 89.3229 52.125 88.9375C51.8333 88.5521 51.6068 88.099 51.4453 87.5781C51.2891 87.0521 51.2109 86.4818 51.2109 85.8672ZM52.6641 85.7031V85.8672C52.6641 86.2891 52.7057 86.6849 52.7891 87.0547C52.8776 87.4245 53.013 87.75 53.1953 88.0312C53.3776 88.3125 53.6094 88.5339 53.8906 88.6953C54.1719 88.8516 54.5078 88.9297 54.8984 88.9297C55.3776 88.9297 55.7708 88.8281 56.0781 88.625C56.3906 88.4219 56.6406 88.1536 56.8281 87.8203C57.0156 87.487 57.1615 87.125 57.2656 86.7344V84.8516C57.2031 84.5651 57.112 84.2891 56.9922 84.0234C56.8776 83.7526 56.7266 83.513 56.5391 83.3047C56.3568 83.0911 56.1302 82.9219 55.8594 82.7969C55.5938 82.6719 55.2786 82.6094 54.9141 82.6094C54.5182 82.6094 54.1771 82.6927 53.8906 82.8594C53.6094 83.0208 53.3776 83.2448 53.1953 83.5312C53.013 83.8125 52.8776 84.1406 52.7891 84.5156C52.7057 84.8854 52.6641 85.2812 52.6641 85.7031ZM66.0156 83.1719V93.25H64.5625V81.5469H65.8906L66.0156 83.1719ZM71.7109 85.7031V85.8672C71.7109 86.4818 71.638 87.0521 71.4922 87.5781C71.3464 88.099 71.1328 88.5521 70.8516 88.9375C70.5755 89.3229 70.2344 89.6224 69.8281 89.8359C69.4219 90.0495 68.9557 90.1562 68.4297 90.1562C67.8932 90.1562 67.4193 90.0677 67.0078 89.8906C66.5964 89.7135 66.2474 89.4557 65.9609 89.1172C65.6745 88.7786 65.4453 88.3724 65.2734 87.8984C65.1068 87.4245 64.9922 86.8906 64.9297 86.2969V85.4219C64.9922 84.7969 65.1094 84.237 65.2812 83.7422C65.4531 83.2474 65.6797 82.8255 65.9609 82.4766C66.2474 82.1224 66.5938 81.8542 67 81.6719C67.4062 81.4844 67.875 81.3906 68.4062 81.3906C68.9375 81.3906 69.4089 81.4948 69.8203 81.7031C70.2318 81.9062 70.5781 82.1979 70.8594 82.5781C71.1406 82.9583 71.3516 83.4141 71.4922 83.9453C71.638 84.4714 71.7109 85.0573 71.7109 85.7031ZM70.2578 85.8672V85.7031C70.2578 85.2812 70.2135 84.8854 70.125 84.5156C70.0365 84.1406 69.8984 83.8125 69.7109 83.5312C69.5286 83.2448 69.2943 83.0208 69.0078 82.8594C68.7214 82.6927 68.3802 82.6094 67.9844 82.6094C67.6198 82.6094 67.3021 82.6719 67.0312 82.7969C66.7656 82.9219 66.5391 83.0911 66.3516 83.3047C66.1641 83.513 66.0104 83.7526 65.8906 84.0234C65.776 84.2891 65.6901 84.5651 65.6328 84.8516V86.875C65.737 87.2396 65.8828 87.5833 66.0703 87.9062C66.2578 88.224 66.5078 88.4818 66.8203 88.6797C67.1328 88.8724 67.526 88.9688 68 88.9688C68.3906 88.9688 68.7266 88.888 69.0078 88.7266C69.2943 88.5599 69.5286 88.3333 69.7109 88.0469C69.8984 87.7604 70.0365 87.4323 70.125 87.0625C70.2135 86.6875 70.2578 86.2891 70.2578 85.8672ZM75 78V90H73.5547V78H75ZM74.6562 85.4531L74.0547 85.4297C74.0599 84.8516 74.1458 84.3177 74.3125 83.8281C74.4792 83.3333 74.7135 82.9036 75.0156 82.5391C75.3177 82.1745 75.6771 81.8932 76.0938 81.6953C76.5156 81.4922 76.9818 81.3906 77.4922 81.3906C77.9089 81.3906 78.2839 81.4479 78.6172 81.5625C78.9505 81.6719 79.2344 81.849 79.4688 82.0938C79.7083 82.3385 79.8906 82.6562 80.0156 83.0469C80.1406 83.4323 80.2031 83.9036 80.2031 84.4609V90H78.75V84.4453C78.75 84.0026 78.6849 83.6484 78.5547 83.3828C78.4245 83.112 78.2344 82.9167 77.9844 82.7969C77.7344 82.6719 77.4271 82.6094 77.0625 82.6094C76.7031 82.6094 76.375 82.6849 76.0781 82.8359C75.7865 82.987 75.5339 83.1953 75.3203 83.4609C75.112 83.7266 74.9479 84.0312 74.8281 84.375C74.7135 84.7135 74.6562 85.0729 74.6562 85.4531ZM81.9844 85.8672V85.6875C81.9844 85.0781 82.0729 84.513 82.25 83.9922C82.4271 83.4661 82.6823 83.0104 83.0156 82.625C83.349 82.2344 83.7526 81.9323 84.2266 81.7188C84.7005 81.5 85.2318 81.3906 85.8203 81.3906C86.4141 81.3906 86.9479 81.5 87.4219 81.7188C87.901 81.9323 88.3073 82.2344 88.6406 82.625C88.9792 83.0104 89.237 83.4661 89.4141 83.9922C89.5911 84.513 89.6797 85.0781 89.6797 85.6875V85.8672C89.6797 86.4766 89.5911 87.0417 89.4141 87.5625C89.237 88.0833 88.9792 88.5391 88.6406 88.9297C88.3073 89.3151 87.9036 89.6172 87.4297 89.8359C86.9609 90.0495 86.4297 90.1562 85.8359 90.1562C85.2422 90.1562 84.7083 90.0495 84.2344 89.8359C83.7604 89.6172 83.3542 89.3151 83.0156 88.9297C82.6823 88.5391 82.4271 88.0833 82.25 87.5625C82.0729 87.0417 81.9844 86.4766 81.9844 85.8672ZM83.4297 85.6875V85.8672C83.4297 86.2891 83.4792 86.6875 83.5781 87.0625C83.6771 87.4323 83.8255 87.7604 84.0234 88.0469C84.2266 88.3333 84.4792 88.5599 84.7812 88.7266C85.0833 88.888 85.4349 88.9688 85.8359 88.9688C86.2318 88.9688 86.5781 88.888 86.875 88.7266C87.1771 88.5599 87.4271 88.3333 87.625 88.0469C87.8229 87.7604 87.9714 87.4323 88.0703 87.0625C88.1745 86.6875 88.2266 86.2891 88.2266 85.8672V85.6875C88.2266 85.2708 88.1745 84.8776 88.0703 84.5078C87.9714 84.1328 87.8203 83.8021 87.6172 83.5156C87.4193 83.224 87.1693 82.9948 86.8672 82.8281C86.5703 82.6615 86.2214 82.5781 85.8203 82.5781C85.4245 82.5781 85.0755 82.6615 84.7734 82.8281C84.4766 82.9948 84.2266 83.224 84.0234 83.5156C83.8255 83.8021 83.6771 84.1328 83.5781 84.5078C83.4792 84.8776 83.4297 85.2708 83.4297 85.6875ZM95.0312 81.5469V82.6562H90.4609V81.5469H95.0312ZM92.0078 79.4922H93.4531V87.9062C93.4531 88.1927 93.4974 88.4089 93.5859 88.5547C93.6745 88.7005 93.7891 88.7969 93.9297 88.8438C94.0703 88.8906 94.2214 88.9141 94.3828 88.9141C94.5026 88.9141 94.6276 88.9036 94.7578 88.8828C94.8932 88.8568 94.9948 88.8359 95.0625 88.8203L95.0703 90C94.9557 90.0365 94.8047 90.0703 94.6172 90.1016C94.4349 90.138 94.2135 90.1562 93.9531 90.1562C93.599 90.1562 93.2734 90.0859 92.9766 89.9453C92.6797 89.8047 92.4427 89.5703 92.2656 89.2422C92.0938 88.9089 92.0078 88.4609 92.0078 87.8984V79.4922ZM96.1875 85.8672V85.6875C96.1875 85.0781 96.276 84.513 96.4531 83.9922C96.6302 83.4661 96.8854 83.0104 97.2188 82.625C97.5521 82.2344 97.9557 81.9323 98.4297 81.7188C98.9036 81.5 99.4349 81.3906 100.023 81.3906C100.617 81.3906 101.151 81.5 101.625 81.7188C102.104 81.9323 102.51 82.2344 102.844 82.625C103.182 83.0104 103.44 83.4661 103.617 83.9922C103.794 84.513 103.883 85.0781 103.883 85.6875V85.8672C103.883 86.4766 103.794 87.0417 103.617 87.5625C103.44 88.0833 103.182 88.5391 102.844 88.9297C102.51 89.3151 102.107 89.6172 101.633 89.8359C101.164 90.0495 100.633 90.1562 100.039 90.1562C99.4453 90.1562 98.9115 90.0495 98.4375 89.8359C97.9635 89.6172 97.5573 89.3151 97.2188 88.9297C96.8854 88.5391 96.6302 88.0833 96.4531 87.5625C96.276 87.0417 96.1875 86.4766 96.1875 85.8672ZM97.6328 85.6875V85.8672C97.6328 86.2891 97.6823 86.6875 97.7812 87.0625C97.8802 87.4323 98.0286 87.7604 98.2266 88.0469C98.4297 88.3333 98.6823 88.5599 98.9844 88.7266C99.2865 88.888 99.638 88.9688 100.039 88.9688C100.435 88.9688 100.781 88.888 101.078 88.7266C101.38 88.5599 101.63 88.3333 101.828 88.0469C102.026 87.7604 102.174 87.4323 102.273 87.0625C102.378 86.6875 102.43 86.2891 102.43 85.8672V85.6875C102.43 85.2708 102.378 84.8776 102.273 84.5078C102.174 84.1328 102.023 83.8021 101.82 83.5156C101.622 83.224 101.372 82.9948 101.07 82.8281C100.773 82.6615 100.424 82.5781 100.023 82.5781C99.6276 82.5781 99.2786 82.6615 98.9766 82.8281C98.6797 82.9948 98.4297 83.224 98.2266 83.5156C98.0286 83.8021 97.8802 84.1328 97.7812 84.5078C97.6823 84.8776 97.6328 85.2708 97.6328 85.6875Z" fill="#1ABC00"/>
</svg>
