<svg width="23" height="22" viewBox="0 0 23 22" fill="none" xmlns="http://www.w3.org/2000/svg">
<path d="M5.53004 13.0612L4.77713 15.7852L2.02523 15.8416C1.20281 14.3633 0.736328 12.6719 0.736328 10.8745C0.736328 9.13643 1.17248 7.4974 1.94559 6.0542H1.94618L4.39615 6.4895L5.46938 8.84962C5.24475 9.48428 5.12232 10.1656 5.12232 10.8745C5.12241 11.6439 5.26621 12.3811 5.53004 13.0612Z" fill="#FBBB00"/>
<path d="M22.1774 8.91602C22.3017 9.55006 22.3664 10.2049 22.3664 10.8741C22.3664 11.6245 22.285 12.3565 22.1299 13.0625C21.6034 15.4652 20.2278 17.5632 18.3221 19.0478L18.3215 19.0473L15.2356 18.8947L14.7989 16.2524C16.0634 15.5337 17.0516 14.409 17.5722 13.0625H11.7891V8.91602H17.6566H22.1774Z" fill="#518EF8"/>
<path d="M18.3217 19.047L18.3223 19.0476C16.4689 20.4914 14.1145 21.3552 11.5516 21.3552C7.43295 21.3552 3.85209 19.1242 2.02539 15.841L5.53021 13.0605C6.44353 15.4229 8.79493 17.1045 11.5516 17.1045C12.7365 17.1045 13.8466 16.7941 14.7991 16.2522L18.3217 19.047Z" fill="#28B446"/>
<path d="M18.4544 2.80559L14.9508 5.58545C13.965 4.98826 12.7996 4.64328 11.5512 4.64328C8.73209 4.64328 6.33671 6.40206 5.46914 8.8491L1.9459 6.05368H1.94531C3.74527 2.69042 7.37129 0.392578 11.5512 0.392578C14.1753 0.392578 16.5814 1.29848 18.4544 2.80559Z" fill="#F14336"/>
</svg>
