<svg width="23" height="14" viewBox="0 0 23 14" fill="none" xmlns="http://www.w3.org/2000/svg">
<path d="M21.25 6.90625H2" stroke="black" stroke-width="2" stroke-linecap="round" stroke-linejoin="round"/>
<mask id="path-2-inside-1_2_2596" fill="white">
<path d="M9.625 13.81L0 6.90498L9.625 0"/>
</mask>
<path d="M8.45918 15.435C9.35668 16.0789 10.6062 15.8733 11.2501 14.9758C11.8939 14.0783 11.6883 12.8288 10.7908 12.1849L8.45918 15.435ZM0 6.90498L-1.16583 5.27991C-1.68946 5.65557 -2 6.26053 -2 6.90498C-2 7.54943 -1.68946 8.15439 -1.16583 8.53005L0 6.90498ZM10.7908 1.62507C11.6883 0.981202 11.8939 -0.268324 11.2501 -1.16583C10.6062 -2.06333 9.35668 -2.26894 8.45918 -1.62507L10.7908 1.62507ZM10.7908 12.1849L1.16583 5.27991L-1.16583 8.53005L8.45918 15.435L10.7908 12.1849ZM1.16583 8.53005L10.7908 1.62507L8.45918 -1.62507L-1.16583 5.27991L1.16583 8.53005Z" fill="black" mask="url(#path-2-inside-1_2_2596)"/>
</svg>
