<svg width="30" height="32" viewBox="0 0 30 32" fill="none" xmlns="http://www.w3.org/2000/svg">
<path d="M6.25 17.3904L21.075 17.3904L16.5375 23.1811C16.3253 23.4523 16.2233 23.8019 16.2537 24.1531C16.2842 24.5043 16.4447 24.8283 16.7 25.0537C16.9553 25.2791 17.2844 25.3876 17.6149 25.3552C17.9454 25.3228 18.2503 25.1523 18.4625 24.8811L24.7125 16.9123C24.7545 16.8489 24.7922 16.7823 24.825 16.7131C24.825 16.6467 24.825 16.6068 24.9125 16.5404C24.9692 16.3881 24.9988 16.226 25 16.0623C24.9988 15.8986 24.9692 15.7365 24.9125 15.5842C24.9125 15.5178 24.9125 15.4779 24.825 15.4115C24.7922 15.3423 24.7545 15.2757 24.7125 15.2123L18.4625 7.24355C18.345 7.09363 18.1978 6.97306 18.0314 6.89042C17.8651 6.80779 17.6836 6.76511 17.5 6.76543C17.2079 6.76482 16.9249 6.8729 16.7 7.0709C16.5734 7.18239 16.4688 7.31932 16.3921 7.47385C16.3154 7.62837 16.2682 7.79745 16.2531 7.9714C16.238 8.14535 16.2553 8.32076 16.3041 8.48758C16.3529 8.6544 16.4322 8.80935 16.5375 8.94355L21.075 14.7342L6.25 14.7342C5.91848 14.7342 5.60054 14.8741 5.36612 15.1232C5.1317 15.3722 5 15.7101 5 16.0623C5 16.4145 5.1317 16.7524 5.36612 17.0014C5.60054 17.2505 5.91848 17.3904 6.25 17.3904Z" fill="#1D592C"/>
</svg>
